<?xml version="1.0" standalone="no"?>
<!DOCTYPE svg PUBLIC "-//W3C//DTD SVG 20010904//EN"
 "http://www.w3.org/TR/2001/REC-SVG-20010904/DTD/svg10.dtd">
<svg version="1.0" xmlns="http://www.w3.org/2000/svg"
 width="545.000000pt" height="716.000000pt" viewBox="0 0 545.000000 716.000000"
 preserveAspectRatio="xMidYMid meet">
<metadata>
Created by potrace 1.16, written by Peter Selinger 2001-2019
</metadata>
<g transform="translate(0.000000,716.000000) scale(0.100000,-0.100000)"
fill="#000000" stroke="none">
<path d="M3800 7152 c-36 -16 -93 -68 -122 -111 -17 -25 -32 -48 -34 -49 -1
-2 -39 -12 -84 -22 -91 -20 -139 -48 -202 -116 -75 -80 -95 -118 -103 -188
l-6 -64 -52 -7 c-106 -15 -194 -86 -223 -181 -7 -24 -12 -46 -11 -48 1 -2 -18
-20 -43 -40 -59 -49 -70 -64 -70 -97 0 -25 -6 -29 -69 -48 -59 -18 -76 -29
-120 -77 -68 -75 -80 -116 -58 -202 17 -63 17 -66 -2 -86 -10 -12 -24 -37 -30
-57 -12 -36 -12 -36 -79 -42 -69 -7 -112 -19 -172 -51 -109 -58 -150 -124
-150 -239 l0 -74 -36 -6 c-56 -9 -123 -54 -155 -105 -23 -37 -29 -57 -29 -103
0 -66 -8 -72 -65 -52 -59 22 -172 18 -235 -7 -62 -25 -101 -55 -144 -113 -27
-38 -30 -49 -30 -117 0 -49 5 -85 16 -105 l16 -30 -102 0 c-116 -1 -165 -17
-235 -80 -47 -42 -106 -155 -96 -184 5 -16 -1 -20 -34 -26 -85 -14 -191 -161
-191 -262 0 -26 7 -61 15 -76 14 -27 13 -30 -19 -62 -63 -63 -81 -172 -41
-249 9 -16 14 -30 13 -31 -2 -1 -31 -17 -66 -35 -85 -45 -122 -90 -122 -150 0
-28 8 -58 20 -78 l21 -33 -25 -30 c-13 -16 -30 -53 -37 -83 -10 -48 -10 -61 5
-100 20 -52 75 -105 143 -139 64 -32 209 -51 282 -37 50 9 165 54 185 71 5 5
20 -1 34 -11 14 -11 38 -20 53 -20 20 0 38 -10 56 -31 38 -43 72 -58 143 -66
44 -4 71 -1 104 11 45 17 45 17 85 -10 37 -24 52 -27 156 -32 112 -5 155 2
193 31 7 6 40 9 72 8 38 -1 69 3 89 13 22 12 36 13 56 6 15 -6 56 -10 92 -10
58 0 69 -3 99 -30 19 -16 52 -34 75 -40 46 -13 130 -5 168 15 20 10 31 10 60
-2 44 -19 120 -12 165 15 29 17 35 17 71 5 59 -22 175 -11 217 19 30 21 42 22
129 19 l96 -3 42 40 c59 56 106 61 203 21 91 -37 135 -79 203 -194 29 -50 67
-108 84 -129 29 -36 31 -44 31 -120 -1 -169 -29 -291 -148 -636 -123 -357
-275 -567 -492 -679 -188 -97 -282 -123 -559 -151 -164 -17 -191 -22 -246 -49
-73 -36 -145 -98 -242 -207 -78 -88 -130 -121 -270 -173 -152 -56 -191 -81
-288 -187 -113 -122 -135 -152 -135 -181 0 -59 89 -52 215 18 67 36 172 77
237 93 26 6 27 5 18 -20 -24 -62 -2 -124 44 -124 21 0 53 16 81 40 11 9 40 22
65 29 96 28 177 82 317 212 72 66 74 67 254 72 l126 3 -56 -67 c-79 -94 -120
-167 -145 -256 -29 -101 -41 -124 -121 -219 -87 -104 -89 -107 -67 -134 18
-22 21 -22 73 -10 91 22 147 57 263 168 137 131 198 166 328 188 101 17 198
51 265 94 23 15 64 30 89 34 77 10 183 45 279 91 l90 43 215 6 c118 4 283 2
365 -4 83 -5 222 -15 310 -20 88 -6 205 -20 260 -32 102 -22 221 -28 288 -15
l37 8 0 94 c0 80 -4 101 -25 142 l-24 48 1 -36 c2 -48 -7 -59 -48 -59 l-34 0
0 53 c0 83 34 169 87 223 52 51 51 70 -1 30 -41 -31 -95 -135 -103 -197 -7
-50 -24 -89 -49 -110 -15 -12 -20 -9 -51 26 -58 67 -56 109 5 178 55 61 71 86
34 52 -57 -51 -105 -131 -98 -159 3 -14 9 -36 12 -49 5 -20 0 -25 -32 -35
l-37 -11 7 65 c4 35 11 76 16 90 11 29 6 44 -15 44 -15 0 -30 -46 -41 -125
l-6 -51 -72 23 c-93 30 -166 64 -166 77 0 21 17 37 46 45 32 8 63 56 46 73 -6
6 -13 -1 -20 -20 -7 -20 -18 -31 -39 -35 -17 -3 -35 -16 -43 -31 l-13 -26 -27
38 c-15 20 -32 51 -38 67 -11 29 -12 29 -9 -14 1 -24 -3 -46 -8 -48 -10 -3
-39 83 -49 145 -8 46 22 118 78 190 56 73 87 97 162 122 65 23 110 25 165 8
54 -16 52 -43 -5 -88 -49 -38 -89 -114 -88 -162 1 -57 15 -51 71 33 23 35 61
74 86 91 25 16 45 34 45 39 0 23 49 6 84 -30 l37 -38 -59 -5 c-61 -6 -122 -30
-122 -49 0 -7 7 -8 18 -4 90 39 192 49 192 20 0 -8 -6 -15 -14 -15 -19 0 -113
-86 -104 -95 4 -4 26 9 48 29 68 61 84 63 137 16 25 -22 50 -40 54 -40 5 0 9
24 9 53 l0 52 -94 100 -95 99 8 343 8 343 25 38 c64 96 85 152 98 266 5 43 18
97 29 120 26 53 30 236 6 256 -8 7 -15 22 -15 34 0 11 -7 30 -15 40 -8 10 -12
22 -10 26 2 4 8 25 13 48 9 39 9 41 -9 31 -11 -5 -20 -15 -20 -22 -5 -51 -3
-118 4 -151 4 -22 5 -46 1 -55 -9 -21 -32 50 -33 102 -1 36 -13 48 -26 27 -8
-13 12 -105 32 -144 13 -25 13 -30 -4 -46 -34 -31 -60 -41 -71 -27 -19 24 -39
102 -32 127 27 98 13 131 -15 35 -15 -50 -15 -56 5 -114 11 -33 20 -72 20 -86
0 -22 -3 -24 -19 -16 -25 14 -33 58 -31 157 1 81 -7 106 -28 81 -18 -21 -27
-245 -13 -304 12 -49 36 -85 63 -96 14 -6 -58 -76 -77 -76 -23 0 -54 38 -61
75 -10 55 -31 101 -48 107 -26 10 -28 -11 -7 -73 12 -33 21 -68 21 -78 0 -10
7 -45 15 -77 16 -63 50 -105 86 -105 26 0 24 -10 -10 -56 -87 -119 -164 -119
-221 2 -11 24 -23 44 -26 44 -3 0 -2 -19 1 -42 5 -33 17 -54 53 -90 29 -31 49
-44 53 -36 4 7 13 -2 24 -22 12 -23 16 -50 13 -96 -2 -37 1 -66 7 -68 6 -3 4
-5 -2 -5 -15 -1 -18 -47 -4 -55 19 -12 36 29 36 88 0 54 2 61 20 61 19 0 20
-6 17 -95 -2 -52 -8 -118 -14 -146 -10 -47 -14 -52 -62 -76 -28 -14 -82 -36
-119 -47 -101 -32 -201 -101 -178 -124 7 -7 25 -3 60 16 27 15 55 27 62 27 7
0 29 11 48 25 29 19 50 25 105 26 46 1 71 -2 74 -10 2 -6 8 -8 13 -5 5 3 4 -9
-4 -28 -13 -33 -14 -33 -93 -39 -74 -6 -167 -31 -188 -50 -6 -5 -16 -9 -24 -9
-16 0 -102 -68 -102 -81 0 -11 -42 -81 -46 -76 -2 1 12 52 30 113 18 60 38
141 44 179 18 122 39 203 55 220 9 8 35 19 59 23 24 5 46 9 51 10 4 1 24 2 45
3 35 0 36 1 12 10 -25 11 -104 7 -150 -7 -24 -7 -25 -7 -7 13 10 12 19 39 20
66 1 25 5 43 8 41 13 -7 21 52 20 146 -2 202 25 418 60 480 32 55 46 108 39
145 -6 36 -7 37 -13 15 -3 -14 -9 -42 -12 -62 -3 -21 -9 -38 -13 -38 -10 0
-47 -62 -44 -72 1 -5 -3 -7 -10 -5 -6 1 -21 -14 -32 -35 l-21 -36 -32 28 c-81
73 -245 70 -360 -5 -45 -30 -9 -29 54 0 81 39 135 40 200 5 29 -15 67 -45 84
-66 30 -38 31 -41 26 -119 -6 -91 -20 -144 -45 -174 -17 -21 -18 -21 -112 -5
-110 19 -174 12 -267 -31 -31 -14 -57 -24 -59 -23 -1 2 4 35 12 73 21 109 25
149 14 165 -8 12 -10 9 -10 -12 0 -16 -4 -28 -9 -28 -11 0 -27 -47 -36 -109
-17 -108 -92 -153 -167 -100 -16 12 -32 18 -36 14 -4 -4 2 -13 13 -21 11 -8
30 -23 42 -34 12 -10 31 -23 42 -30 28 -14 26 -36 -4 -56 -15 -10 -25 -26 -25
-40 0 -18 -5 -24 -22 -24 -31 0 -57 -18 -42 -28 6 -4 16 -16 22 -28 9 -17 6
-26 -15 -50 -25 -29 -50 -82 -45 -97 1 -5 -2 -6 -7 -3 -11 7 -21 -17 -21 -50
0 -33 -24 -31 -80 6 -45 30 -120 42 -120 20 0 -5 10 -10 22 -10 42 0 84 -23
107 -58 22 -33 23 -40 12 -82 -12 -44 -38 -74 -74 -84 -11 -2 -29 9 -49 30
-37 39 -93 68 -114 60 -10 -4 -12 -2 -7 7 4 6 30 46 57 87 83 127 152 285 236
539 89 269 110 371 110 541 0 79 -4 111 -15 128 -19 26 -11 132 8 113 18 -18
37 -12 47 14 6 15 17 25 29 25 48 0 136 44 188 94 l53 52 43 -28 c23 -15 65
-35 93 -44 l50 -16 -57 -54 c-57 -55 -111 -151 -125 -223 -6 -28 -4 -33 11
-30 12 3 25 23 37 59 40 117 144 228 236 252 30 7 82 42 172 114 72 57 130
101 130 99 0 -3 23 7 51 21 71 37 168 44 232 16 26 -11 63 -33 82 -48 43 -33
79 -80 62 -82 -7 0 -28 -4 -48 -7 -25 -5 -40 -3 -51 8 -17 17 -132 52 -195 60
-29 3 -46 1 -53 -9 -20 -23 0 -34 64 -34 35 0 83 -7 106 -15 23 -8 46 -12 51
-9 5 3 9 0 9 -5 0 -6 8 -11 18 -11 22 -1 -25 -39 -88 -73 -38 -20 -48 -33 -68
-83 -14 -32 -29 -69 -35 -82 -8 -16 -7 -26 0 -33 17 -17 31 -3 69 72 41 82 73
105 153 114 105 11 101 9 101 71 0 53 -2 57 -50 105 -70 70 -136 99 -225 99
-47 0 -84 -7 -111 -19 l-41 -18 69 69 c70 72 156 182 198 253 13 22 25 42 26
44 2 2 9 -1 17 -7 7 -6 36 -14 65 -18 l52 -7 0 50 c0 34 -5 55 -16 64 -14 11
-14 13 0 21 9 5 16 19 16 32 0 22 -4 23 -87 29 -50 3 -89 10 -91 16 -2 6 -8 9
-12 6 -27 -16 -133 62 -128 94 2 10 -5 17 -19 19 -16 2 -23 -2 -23 -13 0 -10
-5 -14 -12 -10 -7 4 -6 1 2 -7 8 -7 23 -26 33 -41 10 -16 34 -38 53 -49 19
-11 31 -24 28 -29 -3 -5 2 -6 11 -3 9 4 25 -2 37 -12 12 -11 18 -13 14 -6 -8
14 0 14 29 2 20 -8 20 -9 -1 -9 -12 -1 -33 -10 -48 -22 -15 -11 -33 -19 -40
-16 -9 4 -12 0 -9 -13 3 -12 -7 -26 -30 -44 -41 -32 -122 -37 -142 -9 -11 15
-14 15 -27 2 -8 -8 -13 -19 -11 -25 6 -18 -67 -76 -88 -71 -10 3 -20 0 -23 -7
-3 -7 -5 -7 -5 2 -1 7 -5 10 -11 7 -5 -3 -19 -1 -30 5 -15 8 -20 8 -20 -3 0
-19 -73 -21 -109 -3 -16 9 -39 29 -50 44 l-20 29 57 7 c31 4 65 8 74 9 9 1 15
4 12 8 -2 4 10 12 26 19 17 7 41 25 54 41 13 15 26 26 28 23 3 -2 5 2 5 8 1 7
6 28 11 46 10 29 9 32 -10 32 -11 0 -22 -8 -25 -20 -3 -11 -9 -20 -14 -20 -5
0 -9 -6 -9 -13 0 -39 -109 -96 -185 -97 -49 0 -75 -9 -78 -26 -1 -5 -10 -9
-19 -8 -9 0 -14 -4 -11 -9 4 -6 -5 -7 -23 -2 -33 9 -40 9 -74 0 -23 -5 -23 -5
-4 4 12 5 25 14 29 20 3 6 11 9 16 6 5 -4 9 -1 9 6 0 7 3 9 7 5 9 -8 44 64 37
75 -9 15 -29 10 -42 -11 -7 -12 -34 -34 -59 -50 -39 -25 -57 -30 -110 -30 -52
0 -64 -3 -73 -20 -6 -11 -16 -17 -22 -14 -7 4 -8 3 -4 -4 9 -16 -40 -34 -68
-27 -32 9 -69 27 -89 44 -15 12 -24 13 -51 3 -43 -16 -90 -16 -80 0 4 7 3 8
-5 4 -18 -11 -56 18 -91 69 -17 25 -34 45 -38 45 -4 0 -24 -16 -45 -35 -46
-41 -105 -59 -165 -51 -49 7 -105 33 -97 46 3 5 0 12 -7 16 -7 4 -10 4 -6 -1
11 -11 -12 -36 -25 -28 -5 3 -7 2 -4 -4 11 -17 -32 -73 -68 -90 -30 -14 -42
-15 -78 -6 -41 11 -43 11 -77 -21 -47 -45 -101 -73 -84 -43 5 7 0 6 -10 -3
-22 -17 -72 -14 -104 6 -23 15 -67 10 -57 -6 7 -11 -57 -40 -88 -40 -13 0 -36
9 -49 20 -24 19 -26 19 -42 2 -15 -17 -13 -20 23 -40 21 -12 47 -22 58 -22 10
0 27 -6 38 -14 11 -7 36 -17 55 -21 45 -10 290 -12 283 -2 -2 4 0 7 6 7 14 0
81 -70 81 -85 0 -7 7 -18 15 -25 9 -7 13 -15 10 -18 -3 -3 0 -11 6 -18 12 -14
1 -67 -12 -58 -5 3 -6 10 -3 16 4 7 2 8 -4 4 -6 -4 -9 -13 -6 -20 6 -16 -43
-28 -50 -12 -3 7 -5 7 -5 -1 -1 -14 -51 -19 -51 -5 0 4 -18 7 -40 7 -22 0 -40
-5 -40 -11 0 -20 -27 -47 -51 -50 -13 -1 -24 -3 -24 -5 0 -1 -19 -3 -42 -4
-24 -1 -43 2 -43 7 0 5 -4 7 -9 3 -5 -3 -12 -1 -16 5 -4 6 -10 8 -15 5 -12 -8
-41 6 -34 16 11 18 -3 8 -47 -31 -43 -40 -46 -41 -103 -37 -34 3 -62 11 -67
18 -5 8 -9 10 -9 6 0 -5 10 -23 22 -40 12 -17 17 -27 10 -23 -7 4 -12 3 -12
-2 0 -11 -42 -29 -85 -37 -36 -6 -97 4 -90 15 3 5 -4 6 -14 3 -12 -3 -33 8
-60 32 -39 35 -43 37 -71 25 -21 -9 -47 -10 -83 -5 -68 10 -99 10 -171 0 -36
-5 -57 -5 -53 1 9 16 -39 9 -67 -10 -15 -9 -32 -14 -38 -10 -7 4 -8 3 -4 -4 7
-11 -5 -16 -67 -25 -55 -9 -183 26 -170 46 3 6 1 7 -5 3 -14 -8 -52 10 -52 25
0 6 4 7 10 4 6 -3 7 1 3 10 -5 13 -7 14 -14 3 -5 -7 -12 -13 -16 -14 -4 0 -28
-10 -53 -22 -51 -24 -85 -29 -74 -9 6 9 4 9 -7 0 -17 -17 -63 -17 -53 -1 4 7
3 8 -4 4 -16 -10 -54 12 -46 26 4 6 3 8 -4 5 -5 -4 -21 6 -34 21 -17 21 -34
29 -58 30 -24 0 -42 10 -62 31 l-29 30 -21 -21 c-19 -19 -22 -20 -33 -4 -11
15 -13 15 -19 1 -3 -9 -2 -13 4 -10 6 3 10 2 10 -4 0 -15 -91 -46 -136 -46
-23 0 -40 -4 -37 -9 6 -9 -117 -1 -162 10 -14 3 -22 11 -18 17 4 6 1 7 -6 2
-31 -19 -167 82 -158 117 3 10 1 16 -4 12 -5 -3 -9 9 -9 26 0 18 4 29 10 25 6
-3 7 1 4 10 -5 11 9 31 42 63 l49 47 -33 29 c-18 16 -31 35 -28 42 3 8 2 14
-3 14 -12 0 -11 51 2 75 23 45 135 124 157 110 5 -3 10 -2 10 3 0 5 10 12 22
15 l22 6 -24 26 c-13 14 -20 25 -17 25 4 0 -2 9 -13 20 -30 30 -27 95 7 145
30 46 43 56 58 48 5 -4 7 -3 3 2 -4 4 -3 14 3 21 7 9 7 19 0 32 -18 34 -7 115
24 168 47 83 80 112 139 119 28 4 57 12 64 17 7 6 12 33 12 65 0 30 6 66 14
81 16 31 71 84 103 101 34 17 132 24 191 13 47 -8 56 -7 85 12 49 33 56 67 27
122 -73 133 18 255 192 255 39 1 73 -6 101 -20 24 -12 49 -21 56 -21 7 0 33
16 57 36 l44 36 0 67 c0 43 5 74 15 88 24 34 79 63 121 63 22 0 44 4 50 8 20
13 34 74 34 147 0 93 21 127 110 174 55 29 77 35 156 40 90 6 93 6 119 -21 15
-15 40 -30 56 -33 26 -6 29 -11 29 -44 0 -74 61 -104 200 -99 67 2 85 6 85 18
0 12 -21 16 -106 20 -130 6 -142 13 -137 84 l3 51 -42 6 c-51 6 -97 44 -84 68
5 9 9 29 9 44 0 17 10 39 27 57 30 31 30 53 4 153 -12 46 -11 49 17 90 34 49
89 78 157 85 56 5 77 28 77 82 0 40 32 80 64 80 44 0 56 18 56 82 0 57 2 63
38 98 43 43 92 60 174 60 34 0 60 5 65 13 4 6 8 48 8 93 0 80 0 81 45 138 62
81 99 106 188 127 112 27 128 36 163 90 45 70 78 94 159 114 117 29 204 7 283
-72 58 -56 68 -58 116 -21 28 22 91 24 129 4 15 -8 48 -37 74 -65 26 -28 52
-51 58 -51 6 0 25 7 42 16 34 18 129 44 159 44 58 0 149 -78 158 -136 9 -54
30 -63 84 -37 l44 21 47 -47 c51 -51 56 -75 26 -114 -25 -32 -25 -62 -1 -84
11 -9 18 -20 15 -25 -10 -15 25 -58 47 -58 28 0 58 -16 99 -55 56 -51 65 -51
121 3 49 46 50 48 47 99 l-3 52 -52 -39 -51 -39 -55 32 c-61 35 -83 67 -67 97
15 28 12 88 -6 126 -9 19 -44 60 -78 90 -57 51 -64 55 -102 51 -37 -4 -43 -1
-58 24 -35 59 -150 128 -214 129 -18 0 -66 -9 -108 -20 l-76 -21 -42 39 c-59
54 -121 76 -196 69 -34 -3 -67 -10 -74 -16 -10 -8 -18 -6 -32 10 -10 12 -36
32 -56 45 -36 23 -46 24 -200 23 -90 0 -170 -3 -178 -7z m345 -3689 c22 -57
22 -62 7 -76 -10 -9 -30 -20 -45 -26 -16 -6 -26 -15 -22 -21 7 -11 52 4 76 26
15 13 17 13 23 -2 8 -20 12 -16 -51 -48 -83 -42 -133 -32 -195 37 -45 49 -46
60 -13 89 26 23 174 89 189 85 4 -2 19 -30 31 -64z m915 -62 c0 -19 -311 -289
-368 -320 -92 -49 -271 53 -371 213 l-30 49 66 22 c50 17 74 20 97 14 35 -10
116 -10 161 0 22 5 44 0 84 -21 89 -47 228 -36 285 21 28 29 76 42 76 22z
m-839 -113 c12 -24 35 -62 52 -85 24 -34 28 -48 23 -77 -4 -19 -10 -36 -14
-38 -4 -2 -24 -22 -44 -45 -20 -23 -38 -39 -41 -37 -2 3 -10 -2 -17 -11 -7 -8
-19 -15 -26 -15 -8 0 -14 -4 -14 -8 0 -4 -18 -9 -40 -10 -35 -3 -41 1 -55 29
-16 30 -16 33 2 58 11 14 47 40 81 56 33 17 72 40 85 53 13 12 30 22 38 22 10
1 10 3 -3 11 -13 7 -27 3 -58 -17 -57 -38 -116 -42 -174 -13 -25 12 -46 28
-46 35 0 19 41 44 71 44 32 0 124 39 94 40 -15 0 -9 7 20 24 22 13 41 25 42
25 2 1 12 -18 24 -41z m-459 -67 c60 -17 114 -31 121 -31 24 0 57 -55 51 -86
-3 -16 -7 -30 -8 -32 -10 -10 -40 17 -72 64 -25 38 -39 52 -47 46 -19 -15 -74
-12 -88 4 -6 8 -22 14 -36 14 -14 0 -26 7 -30 18 -3 9 -17 27 -32 40 l-26 24
30 -15 c17 -8 78 -28 137 -46z m869 -1181 c54 -21 57 -24 62 -62 6 -44 -9 -98
-26 -98 -7 0 -34 7 -62 16 -73 22 -225 19 -281 -6 -62 -27 -58 -43 9 -34 111
15 139 12 221 -22 44 -19 84 -38 89 -43 11 -11 1 -61 -11 -61 -5 0 -28 16 -51
36 -39 34 -121 63 -121 44 0 -13 27 -30 35 -22 5 4 5 2 1 -5 -4 -7 9 -20 33
-33 48 -28 81 -84 88 -153 3 -28 8 -74 12 -102 9 -67 -11 -191 -38 -240 l-22
-40 7 40 c10 60 10 60 -1 63 -16 6 -54 -118 -70 -228 -9 -60 -26 -89 -73 -127
-33 -27 -41 -30 -46 -17 -3 9 2 35 12 57 13 30 18 59 15 100 -3 41 2 70 15
100 24 56 46 136 39 143 -3 4 -23 -28 -43 -70 -20 -42 -41 -76 -45 -76 -5 0
-21 16 -36 36 -27 34 -103 83 -103 67 0 -5 -4 -1 -10 7 -5 8 -12 12 -15 8 -3
-3 21 -37 54 -74 63 -73 88 -131 67 -159 -19 -26 -67 -8 -121 46 -77 77 -215
137 -215 94 0 -9 8 -18 18 -21 78 -27 143 -66 183 -113 29 -33 52 -51 67 -51
17 0 22 -6 22 -24 0 -42 -11 -56 -42 -56 -45 0 -80 23 -112 74 -27 43 -55 64
-42 31 3 -8 1 -15 -4 -15 -6 0 -10 -9 -10 -20 0 -11 4 -20 8 -20 5 0 25 -16
45 -35 46 -44 52 -95 13 -95 -13 0 -29 7 -36 15 -20 24 -32 17 -28 -17 3 -28
-1 -35 -32 -50 -19 -9 -46 -18 -60 -18 -14 -1 -41 -7 -60 -14 -28 -10 -42 -10
-75 1 -43 15 -85 49 -85 69 0 17 -118 54 -152 47 -14 -3 -40 3 -59 13 l-34 17
45 20 c74 33 186 25 264 -19 51 -28 79 -29 52 -1 -10 9 -21 15 -26 12 -4 -3
-7 3 -6 12 2 25 -86 66 -155 71 l-58 4 107 85 c169 136 206 175 239 254 27 66
30 70 77 85 60 20 176 15 223 -10 18 -9 56 -37 83 -61 49 -44 70 -50 70 -20 0
19 -83 89 -138 116 -54 26 -167 37 -224 21 l-37 -10 10 26 c15 39 80 155 97
171 8 8 22 33 32 55 9 23 26 61 37 86 11 25 26 67 33 93 15 57 30 69 142 109
96 33 148 33 239 -2z m-893 -613 c6 0 10 -3 7 -6 -3 -2 18 -28 46 -57 l52 -53
-67 -69 c-36 -38 -77 -84 -91 -101 -13 -18 -43 -46 -67 -63 -24 -16 -32 -21
-19 -9 35 32 19 26 -95 -33 l-104 -55 -70 20 c-117 33 -194 13 -110 -29 l41
-20 -33 -10 c-89 -28 -157 -21 -177 17 -5 9 -29 27 -54 39 -52 26 -122 29
-175 6 l-37 -15 -32 38 c-22 26 -33 33 -33 21 0 -9 12 -31 26 -48 15 -17 24
-34 20 -37 -3 -3 -39 -9 -78 -13 -82 -8 -169 -44 -211 -87 -14 -16 -47 -44
-72 -63 -25 -19 -61 -47 -79 -62 -19 -16 -38 -28 -43 -28 -5 0 -22 -13 -36
-30 -15 -16 -46 -39 -69 -51 -36 -18 -47 -20 -73 -10 -42 15 -45 14 -45 -9 0
-25 -48 -50 -97 -50 -21 0 -56 -9 -78 -20 l-39 -20 33 34 c35 36 70 54 229
115 136 53 196 95 284 197 85 100 168 166 235 187 27 9 109 21 183 27 194 17
323 44 452 96 169 68 261 127 367 236 31 32 37 35 65 26 17 -5 37 -10 44 -11z
m-813 -492 c65 -7 155 -32 155 -44 0 -3 -40 -17 -89 -30 -49 -12 -101 -29
-115 -36 -23 -12 -26 -11 -32 7 -6 21 -75 57 -111 58 -42 0 -33 19 19 39 29
11 66 19 83 16 17 -2 57 -7 90 -10z m-138 -83 c13 -8 13 -11 -2 -25 -9 -10
-26 -17 -38 -18 -12 -1 -29 -2 -37 -3 -8 -2 -23 -3 -32 -4 -9 -1 -23 -9 -31
-17 -8 -8 -41 -30 -74 -49 -32 -19 -92 -64 -133 -101 -66 -58 -195 -145 -216
-145 -8 0 68 71 116 109 17 13 55 55 84 95 57 77 113 131 155 149 14 6 34 19
43 28 15 15 23 16 83 3 37 -8 74 -18 82 -22z m827 -22 c17 -5 43 -12 58 -15
15 -3 40 -23 59 -46 31 -40 32 -42 14 -55 -25 -18 -50 -18 -66 2 -23 28 -116
82 -161 94 -24 7 -47 16 -53 20 -5 5 -23 11 -40 13 -16 3 12 4 64 1 52 -2 108
-8 125 -14z m-183 -43 c35 -14 75 -27 89 -31 14 -3 37 -17 53 -31 48 -46 30
-95 -47 -125 -21 -8 -28 -6 -41 13 -11 16 -15 18 -15 5 0 -21 -20 -37 -56 -44
-26 -5 -32 -2 -46 28 l-17 33 0 -27 c-1 -38 -17 -35 -86 15 -33 23 -71 48 -85
55 -78 40 -87 47 -81 64 8 21 54 58 89 69 48 15 173 3 243 -24z m-230 -173
c71 -39 75 -47 49 -89 -12 -19 -25 -35 -28 -36 -4 0 -16 -2 -27 -4 -11 -2 -40
-7 -65 -10 -100 -15 -164 -63 -296 -224 -2 -2 3 14 10 35 7 21 21 63 31 93 21
66 53 119 125 205 l55 66 48 -4 c26 -3 70 -17 98 -32z"/>
<path d="M3029 5783 c-2 -50 3 -76 17 -98 8 -12 11 -25 7 -29 -5 -4 -3 -6 2
-5 15 5 95 -29 95 -40 0 -6 -4 -13 -10 -16 -18 -11 -11 -81 10 -107 10 -14 16
-29 12 -33 -4 -5 -2 -5 5 -1 16 9 64 -14 56 -27 -3 -6 -1 -7 6 -3 14 9 78 -57
75 -79 -1 -8 2 -13 7 -9 5 3 7 10 4 15 -4 5 3 9 15 9 12 0 19 -4 15 -9 -3 -6
6 -6 24 -1 23 6 33 4 45 -9 13 -14 13 -20 3 -31 -9 -10 -9 -11 0 -6 7 4 23 0
35 -8 32 -22 58 -20 58 4 0 13 -7 20 -18 20 -25 0 -42 19 -42 47 0 13 -3 23
-7 23 -5 1 -34 2 -66 3 -52 2 -62 6 -85 33 -15 17 -42 37 -60 44 -36 14 -72
54 -72 80 0 10 9 29 20 43 11 14 20 30 20 35 0 5 -25 20 -55 32 -63 25 -88 60
-83 113 2 23 -1 32 -14 35 -14 3 -18 -3 -19 -25z"/>
<path d="M5079 5478 c-1 -2 -7 -40 -14 -85 -20 -132 -85 -215 -189 -245 -66
-19 -70 -26 -36 -65 66 -74 15 -154 -113 -178 -44 -8 -52 -18 -38 -43 8 -14 6
-24 -6 -39 -16 -20 -17 -20 -49 12 -30 31 -107 65 -145 65 -13 0 -19 12 -24
43 -17 100 -59 156 -142 187 -86 32 -194 24 -305 -23 -36 -15 -41 -15 -84 5
-36 15 -61 19 -110 16 -53 -3 -65 -1 -69 12 -3 9 -17 28 -31 41 -21 20 -38 24
-92 26 -37 2 -101 12 -142 24 -109 30 -232 23 -298 -18 -68 -42 -103 -104
-110 -193 -5 -68 -6 -71 -36 -84 -66 -28 -86 -77 -57 -134 l20 -40 -27 -18
c-39 -25 -51 -39 -66 -75 -14 -33 -6 -92 15 -114 20 -21 6 -22 -46 -4 -94 33
-161 21 -221 -39 -30 -29 -52 -87 -56 -144 -2 -22 -7 -28 -26 -28 -83 0 -184
-60 -199 -118 -8 -32 11 -106 36 -141 l19 -27 -38 -31 c-47 -40 -55 -75 -29
-126 l19 -38 -36 -32 c-48 -41 -64 -79 -53 -126 14 -64 109 -131 187 -131 17
0 22 -6 22 -24 0 -31 43 -66 82 -66 39 0 35 30 -6 41 -32 9 -48 27 -38 44 21
32 -4 50 -67 48 -31 -1 -111 30 -111 43 0 3 5 2 12 -2 7 -4 8 -3 4 5 -4 6 -11
9 -16 6 -21 -13 -46 64 -30 95 12 22 64 61 88 65 9 1 15 9 13 16 -1 8 -4 24
-5 35 0 14 -6 20 -15 16 -9 -3 -12 -1 -7 6 4 7 2 12 -4 12 -6 0 -9 4 -6 9 4 5
0 11 -6 14 -10 3 -10 11 2 33 9 16 20 29 25 29 5 0 20 11 33 24 l25 25 -32 57
c-39 70 -41 117 -6 151 25 25 84 48 126 48 53 0 69 11 69 44 0 50 28 120 60
151 23 22 42 29 82 33 29 2 65 -1 79 -6 25 -10 26 -13 16 -49 -12 -46 -3 -93
18 -93 11 0 15 12 15 50 0 48 1 50 41 70 22 12 39 24 37 28 -2 4 -14 29 -28
55 -23 44 -23 50 -10 75 9 14 36 42 60 60 25 19 47 38 48 43 2 5 -8 23 -22 40
-14 17 -26 39 -26 49 0 22 50 60 79 60 18 0 21 6 21 43 0 67 28 159 58 191 59
62 172 83 302 55 l52 -11 -37 -25 c-29 -19 -34 -27 -25 -38 10 -12 20 -9 64
15 38 22 66 30 100 30 60 0 82 -12 101 -56 14 -34 16 -35 52 -27 112 23 213
-27 213 -105 0 -25 18 -38 32 -24 8 8 6 24 -4 56 l-15 45 51 23 c42 19 68 23
151 23 87 0 105 -3 137 -23 51 -32 78 -80 86 -154 l7 -63 57 -6 c72 -8 121
-38 147 -93 28 -57 26 -84 -9 -151 -16 -31 -30 -63 -30 -71 0 -8 16 -24 35
-35 61 -37 70 -77 31 -144 l-24 -41 18 -54 c23 -67 24 -90 6 -135 -17 -40 -43
-56 -110 -64 -45 -5 -51 -9 -54 -31 -6 -53 -13 -71 -45 -106 -81 -93 -229 -98
-277 -9 -17 31 -27 31 -56 0 -18 -19 -30 -24 -49 -19 -18 4 -27 2 -31 -10 -4
-9 -4 -19 -1 -22 10 -11 77 -6 92 6 16 13 39 4 29 -11 -3 -5 -2 -9 3 -8 15 4
43 -13 37 -22 -3 -5 2 -6 10 -3 9 3 16 1 16 -5 0 -6 27 -9 75 -8 45 2 76 -1
79 -8 2 -5 5 -2 5 8 1 9 5 17 11 17 5 0 25 14 43 30 19 17 42 30 51 30 9 0 15
3 14 8 -1 4 4 23 11 42 17 42 18 47 20 63 1 10 80 37 119 40 6 0 10 2 7 5 -2
3 7 18 20 34 32 38 40 86 24 150 -8 29 -13 59 -13 66 1 6 -2 12 -7 12 -4 0 4
18 18 40 25 38 37 110 19 110 -5 0 -6 3 -3 6 4 4 -10 20 -30 35 -35 28 -35 29
-10 29 32 0 62 -37 70 -87 l6 -38 51 3 c33 3 50 0 50 -8 0 -6 5 -8 10 -5 16
10 56 -20 76 -57 13 -24 18 -57 19 -120 0 -48 5 -91 10 -95 4 -4 5 -2 0 6 -10
17 32 5 58 -17 17 -15 25 -58 8 -48 -5 4 -7 -2 -5 -11 6 -21 -51 -87 -66 -78
-6 4 -9 1 -8 -5 4 -18 -50 -47 -100 -55 -32 -6 -42 -11 -40 -24 5 -21 63 -20
108 3 18 9 39 16 47 16 7 0 13 5 13 11 0 5 5 7 10 4 6 -4 9 -2 8 2 -4 14 59
83 68 75 4 -4 4 -2 1 4 -4 7 -2 26 4 44 15 42 -9 97 -49 111 -26 9 -27 12 -28
85 -1 66 -5 80 -30 117 -33 47 -101 87 -150 87 -27 0 -32 4 -43 40 -13 44 -57
80 -98 80 l-21 0 19 50 c10 28 16 50 11 50 -4 0 0 5 8 10 8 5 10 10 5 10 -6 0
-12 11 -13 26 -1 14 -7 34 -13 45 -10 19 -9 20 13 8 13 -6 20 -8 15 -4 -4 5
-1 15 7 24 8 9 16 27 18 41 2 17 9 25 21 24 9 -1 17 3 17 8 0 6 9 8 20 5 11
-3 18 -1 15 3 -3 5 3 11 13 15 11 3 37 24 58 48 30 32 38 49 36 72 -4 42 -22
85 -36 85 -6 0 9 9 33 20 23 11 48 17 54 13 5 -3 7 -2 4 4 -9 15 48 54 62 42
7 -6 8 -5 2 2 -6 7 0 24 15 46 13 20 24 40 24 45 0 5 3 7 8 5 4 -3 8 5 8 16 1
12 7 51 13 85 12 64 8 102 -10 102 -5 0 -9 -1 -10 -2z"/>
<path d="M5364 5305 c-18 -8 -45 -30 -62 -50 -23 -29 -29 -44 -26 -75 3 -36 2
-38 -30 -44 -48 -9 -119 -60 -152 -109 -16 -23 -32 -44 -37 -45 -4 -2 -5 -7
-3 -10 2 -4 -2 -34 -9 -67 -13 -64 -10 -85 10 -85 14 0 25 30 25 70 1 76 98
194 169 205 60 10 66 17 63 69 -3 40 0 50 26 76 19 19 45 32 71 36 31 5 41 11
41 25 0 23 -39 24 -86 4z"/>
<path d="M1117 3913 c-3 -5 -12 -33 -19 -63 -18 -65 -7 -110 34 -145 15 -13
25 -26 22 -29 -2 -3 -1 -4 2 -1 4 2 22 -2 41 -10 20 -8 66 -15 104 -15 l69 0
0 -34 c0 -38 19 -63 54 -72 20 -5 22 -11 22 -64 0 -50 5 -66 29 -101 17 -24
49 -52 72 -65 23 -12 39 -25 35 -28 -3 -4 1 -4 11 0 9 3 25 3 35 -1 22 -9 137
-6 187 5 26 6 44 5 52 -2 11 -8 12 -7 7 7 -5 13 -4 16 4 11 7 -4 12 -3 12 2 0
5 15 16 33 23 17 7 43 23 56 35 l24 23 27 -22 c15 -12 26 -24 24 -27 -4 -8 31
-12 111 -13 55 0 82 5 128 26 31 14 57 24 57 21 0 -2 14 8 30 23 53 47 20 50
-72 8 -132 -61 -214 -59 -272 6 l-26 29 -51 -40 c-85 -67 -245 -100 -348 -70
-93 26 -143 102 -124 185 12 51 3 65 -39 65 -34 0 -50 25 -36 56 20 43 7 51
-84 51 -83 1 -130 14 -173 48 -22 17 -27 79 -11 148 7 30 5 37 -7 37 -9 0 -18
-3 -20 -7z"/>
<path d="M3556 3804 c-35 -34 -42 -36 -87 -32 -31 3 -60 14 -83 31 -19 15 -37
27 -40 27 -2 0 -15 -18 -28 -41 -44 -78 -156 -111 -238 -69 -44 23 -71 25 -87
9 -18 -18 -146 -23 -197 -9 -25 7 -64 28 -86 48 -29 24 -45 31 -52 24 -12 -12
-1 -55 12 -47 5 3 18 -7 29 -21 12 -15 21 -24 21 -21 0 3 19 -3 43 -13 51 -24
163 -26 222 -5 49 18 58 18 49 3 -4 -7 -3 -8 4 -4 6 4 21 2 34 -5 24 -13 139
-29 133 -18 -3 3 8 9 23 12 41 9 90 43 111 78 17 28 20 29 30 12 6 -10 11 -15
11 -11 0 4 16 0 35 -8 19 -7 48 -14 65 -14 32 0 104 31 115 50 4 6 16 8 27 4
29 -9 98 -11 92 -3 -2 4 3 12 11 19 17 14 20 40 5 40 -6 0 -22 -7 -36 -17 -23
-15 -28 -15 -60 0 -19 10 -36 17 -37 17 -1 0 -19 -17 -41 -36z"/>
<path d="M5138 3339 c-22 -12 -24 -44 -3 -35 8 3 15 1 15 -5 0 -7 14 -8 40 -4
56 9 154 -26 196 -71 18 -19 37 -34 43 -34 5 0 12 -10 14 -22 2 -13 5 -6 6 17
3 86 -109 165 -232 165 -34 0 -70 -5 -79 -11z"/>
</g>
</svg>
