<?xml version="1.0" standalone="no"?>
<!DOCTYPE svg PUBLIC "-//W3C//DTD SVG 20010904//EN"
 "http://www.w3.org/TR/2001/REC-SVG-20010904/DTD/svg10.dtd">
<svg version="1.0" xmlns="http://www.w3.org/2000/svg"
 width="920.000000pt" height="719.000000pt" viewBox="0 0 920.000000 719.000000"
 preserveAspectRatio="xMidYMid meet">
<metadata>
Created by potrace 1.16, written by Peter Selinger 2001-2019
</metadata>
<g transform="translate(0.000000,719.000000) scale(0.100000,-0.100000)"
fill="#000000" stroke="none">
<path d="M3930 7184 c-137 -26 -196 -60 -253 -144 -17 -25 -31 -47 -33 -48 -1
-2 -39 -12 -84 -22 -91 -20 -139 -48 -202 -116 -75 -80 -95 -118 -103 -188
l-6 -64 -52 -7 c-108 -15 -194 -85 -223 -180 -7 -25 -14 -49 -16 -53 -1 -4
-20 -22 -43 -40 -54 -45 -65 -61 -65 -93 0 -25 -6 -29 -68 -48 -57 -17 -77
-29 -114 -69 -80 -86 -91 -124 -62 -221 15 -51 15 -54 -4 -75 -11 -11 -25 -38
-32 -58 -11 -37 -13 -38 -59 -38 -123 0 -270 -80 -317 -171 -19 -38 -24 -64
-24 -122 l0 -74 -36 -6 c-56 -9 -123 -54 -155 -105 -23 -37 -29 -57 -29 -103
0 -66 -8 -72 -65 -52 -61 22 -174 18 -237 -8 -68 -29 -99 -53 -140 -109 -30
-41 -32 -51 -32 -120 0 -49 6 -85 16 -105 l16 -30 -102 0 c-90 0 -107 -3 -158
-28 -31 -15 -73 -46 -93 -69 -45 -49 -89 -140 -80 -167 5 -16 -1 -20 -34 -26
-85 -14 -191 -161 -191 -262 0 -26 7 -61 15 -76 14 -27 13 -30 -19 -62 -63
-63 -81 -172 -41 -249 9 -16 14 -30 13 -31 -2 -1 -31 -17 -66 -35 -115 -61
-149 -134 -102 -224 l19 -39 -24 -28 c-13 -16 -29 -53 -36 -83 -10 -48 -10
-61 5 -100 20 -52 75 -105 143 -139 64 -32 209 -51 282 -37 50 9 165 54 185
71 5 5 20 -1 34 -11 14 -11 38 -20 53 -20 20 0 38 -10 56 -31 38 -43 72 -58
143 -66 44 -4 71 -1 104 11 45 17 45 17 85 -10 37 -24 52 -27 156 -32 112 -5
155 2 193 31 7 6 40 9 72 8 37 -1 69 3 88 13 23 12 37 13 60 5 16 -5 58 -9 92
-7 59 3 65 1 95 -29 17 -17 51 -36 74 -43 48 -13 130 -6 171 15 20 10 31 10
55 -1 46 -20 106 -17 157 9 42 21 49 22 84 9 58 -21 174 -10 216 20 30 21 42
22 129 19 l96 -3 42 40 c59 56 106 61 203 21 92 -38 135 -79 205 -197 30 -52
68 -109 84 -127 27 -30 29 -39 29 -113 0 -165 -26 -283 -125 -575 -171 -500
-315 -676 -670 -817 -106 -42 -184 -57 -404 -80 -163 -17 -191 -22 -246 -49
-73 -36 -145 -98 -242 -207 -78 -88 -130 -121 -270 -173 -152 -56 -191 -81
-288 -187 -113 -122 -135 -152 -135 -181 0 -59 89 -52 215 18 67 36 172 77
237 93 26 6 27 5 18 -20 -24 -62 -2 -124 44 -124 21 0 53 16 81 40 11 9 40 22
65 29 96 28 177 82 317 212 72 66 74 67 254 72 l126 3 -56 -67 c-79 -94 -120
-167 -145 -256 -29 -100 -44 -129 -115 -211 -31 -37 -65 -79 -74 -93 -17 -25
-17 -27 1 -49 18 -22 21 -22 73 -10 91 22 147 57 263 168 125 120 220 177 314
187 104 12 184 40 282 96 25 15 65 30 90 33 77 11 181 46 275 91 l90 43 215 6
c118 4 280 2 360 -4 80 -5 222 -14 315 -20 101 -6 207 -19 260 -31 148 -35
285 -28 456 23 37 10 178 32 315 47 l248 28 117 -38 c64 -21 156 -45 204 -54
49 -8 106 -20 127 -26 32 -8 44 -7 64 6 59 39 40 85 -86 209 -61 61 -107 116
-120 145 -30 62 -44 76 -122 122 -36 21 -68 42 -70 47 -1 4 -19 18 -39 30
-113 69 -263 85 -517 57 -87 -10 -172 -15 -188 -11 -18 5 -69 49 -141 123
l-111 115 7 344 8 344 25 37 c61 93 98 189 98 259 0 132 86 231 448 518 40 32
114 97 165 146 l93 89 56 -4 c68 -4 122 7 157 32 22 16 32 17 68 8 23 -6 52
-20 65 -32 37 -35 73 -43 184 -43 109 0 144 9 191 52 18 17 37 21 107 22 79 1
87 3 115 30 27 26 34 28 68 20 21 -5 76 -7 123 -4 76 5 95 10 182 53 86 42
100 47 120 36 13 -7 52 -13 88 -14 36 -2 83 -10 104 -20 59 -25 113 -22 182
10 36 18 72 28 92 26 51 -4 128 18 172 50 29 21 51 29 82 29 68 0 232 96 300
175 24 28 41 116 33 172 -8 57 -47 129 -74 138 -12 3 -23 22 -30 50 -6 24 -24
56 -39 71 l-28 28 20 36 c20 37 20 37 0 71 -11 19 -30 35 -42 37 -12 2 -22 5
-22 6 0 2 11 29 25 61 14 31 29 78 32 104 9 55 9 53 -2 115 -9 59 -67 135
-139 184 -44 29 -55 32 -127 32 -74 0 -79 1 -79 21 0 38 -38 78 -88 93 l-47
14 3 47 c6 84 -33 133 -118 150 -67 13 -67 13 -73 69 -7 74 -58 166 -91 166
-7 0 -11 30 -12 78 -1 89 -15 123 -70 171 -32 28 -36 37 -31 66 9 56 -37 134
-95 163 l-46 23 18 42 c50 116 25 220 -83 359 -58 74 -73 88 -122 106 -34 13
-92 24 -148 28 -89 6 -94 5 -148 -24 l-56 -31 -7 52 c-8 73 -36 124 -98 183
-117 111 -277 158 -453 133 -74 -10 -101 -19 -154 -51 -65 -39 -85 -45 -96
-28 -4 6 -25 20 -48 31 -32 17 -52 20 -92 16 -43 -4 -53 -2 -63 13 -6 11 -33
31 -59 47 -79 46 -211 39 -318 -19 -16 -9 -58 -36 -92 -61 l-62 -46 -55 32
c-60 35 -82 67 -66 97 15 28 12 88 -6 126 -9 19 -44 60 -78 90 -57 51 -64 55
-102 51 -37 -4 -43 -1 -58 24 -35 59 -150 128 -214 129 -18 0 -66 -9 -108 -20
l-76 -21 -42 39 c-59 54 -121 76 -196 69 -34 -3 -67 -10 -74 -16 -10 -8 -18
-6 -32 10 -27 30 -82 63 -129 77 -48 14 -141 22 -175 16z m159 -105 c28 -8 61
-31 96 -66 56 -56 66 -58 114 -21 28 22 91 24 129 4 15 -8 48 -37 74 -65 26
-28 52 -51 58 -51 6 0 25 7 42 16 34 18 129 44 159 44 56 0 159 -87 159 -135
0 -24 23 -55 41 -55 5 0 27 9 48 19 l38 20 46 -47 c52 -53 56 -73 27 -117 -25
-38 -25 -61 -1 -82 11 -9 18 -20 15 -25 -10 -15 25 -58 47 -58 29 0 69 -23
103 -59 43 -45 68 -40 139 24 108 98 235 144 321 115 22 -7 51 -30 74 -57 32
-38 41 -44 65 -39 15 3 41 9 57 12 25 5 42 -1 85 -30 30 -20 63 -36 74 -36 10
0 51 20 90 44 160 99 371 81 516 -43 66 -57 85 -98 84 -183 -1 -44 3 -73 12
-84 21 -25 94 -13 157 26 52 32 56 33 132 26 113 -9 141 -24 203 -109 92 -123
103 -205 41 -301 -31 -47 -26 -79 16 -101 17 -9 30 -13 30 -10 0 13 60 -27 85
-57 24 -28 27 -38 22 -78 -6 -45 -5 -47 28 -58 67 -25 122 -106 110 -164 -4
-16 -20 -44 -36 -63 l-29 -33 32 -6 c40 -8 94 -49 113 -86 18 -35 20 -109 3
-145 -15 -33 -5 -41 71 -50 85 -11 94 -18 87 -73 -10 -71 15 -112 79 -133 58
-20 75 -45 57 -91 -22 -59 26 -88 88 -53 14 8 50 14 81 15 46 0 63 -5 96 -29
110 -80 121 -225 27 -361 l-32 -47 60 -11 c33 -6 67 -17 75 -23 18 -16 10 -53
-22 -95 -25 -33 -24 -44 7 -44 33 0 58 -36 58 -84 0 -41 3 -46 38 -66 126 -71
79 -241 -88 -318 -41 -19 -77 -27 -138 -30 -74 -4 -84 -7 -92 -26 -17 -46 -48
-61 -131 -65 -58 -2 -79 -7 -79 -16 0 -48 -125 -61 -203 -22 -28 15 -51 21
-59 16 -17 -11 -85 -11 -92 0 -3 5 8 14 24 21 40 17 70 56 70 91 0 34 15 40
60 21 48 -20 106 -10 141 24 16 15 31 35 34 44 4 14 21 18 79 22 129 8 181 61
181 183 0 63 4 75 34 119 60 86 40 160 -61 229 -53 37 -55 40 -45 67 7 17 25
34 48 44 21 10 49 30 63 47 38 45 57 126 37 158 -15 23 -28 4 -33 -48 -7 -66
-37 -105 -101 -130 -40 -15 -52 -24 -50 -39 1 -11 -7 -28 -17 -37 -28 -25 -25
-32 21 -56 54 -27 126 -94 133 -124 8 -31 -9 -73 -42 -108 -24 -25 -26 -35
-27 -112 0 -82 -1 -86 -32 -117 -31 -30 -37 -32 -122 -36 l-90 -4 -11 -34
c-18 -53 -71 -78 -124 -58 -13 5 -12 10 5 37 18 31 27 116 12 130 -14 14 -33
-17 -33 -55 0 -55 -15 -77 -66 -99 -40 -18 -43 -22 -37 -50 7 -35 -15 -64 -64
-84 -18 -8 -33 -18 -33 -24 0 -14 -57 -31 -105 -31 -35 0 -46 -5 -60 -26 -35
-54 -155 -76 -281 -50 -68 13 -85 14 -118 2 -45 -15 -93 -6 -138 26 -26 18
-30 18 -50 4 -30 -21 -98 -20 -143 1 -41 19 -95 94 -95 130 0 16 -14 37 -40
60 -45 41 -68 95 -73 170 -2 42 0 50 10 41 32 -26 153 3 153 37 0 19 -19 19
-58 0 -57 -29 -91 -7 -106 67 -6 24 -10 27 -43 25 -36 -2 -38 0 -51 41 -15 46
-29 52 -55 22 -27 -32 -107 -22 -130 16 -12 21 -37 17 -37 -5 0 -22 42 -59 77
-67 29 -8 22 -19 -27 -44 -46 -24 -100 -26 -140 -5 -25 13 -33 13 -66 -1 -50
-21 -126 -14 -165 15 -29 21 -29 21 -66 3 -83 -42 -153 -55 -283 -54 -190 2
-290 36 -325 110 -17 35 -45 43 -45 13 0 -52 80 -119 170 -143 l45 -12 -30 -8
c-17 -4 -56 -32 -88 -63 -44 -42 -66 -55 -90 -56 -52 -2 -72 2 -80 18 -7 11
-12 12 -23 2 -8 -6 -14 -17 -14 -23 0 -19 -54 -66 -86 -75 -16 -4 -42 -3 -58
2 -22 8 -31 7 -34 -1 -5 -17 -78 -15 -112 3 -16 8 -38 28 -49 43 l-20 29 54 6
c101 10 215 97 215 164 0 35 -27 28 -44 -10 -28 -68 -115 -117 -208 -117 -35
0 -49 -5 -60 -21 -13 -21 -36 -25 -93 -19 -11 1 -31 -1 -45 -5 -16 -5 -9 3 20
22 48 32 85 77 75 93 -11 17 -25 11 -52 -20 -38 -46 -93 -70 -159 -70 -53 0
-60 -3 -85 -32 -22 -28 -33 -33 -67 -32 -25 1 -59 12 -88 29 -39 23 -50 25
-71 16 -53 -24 -120 -2 -159 54 -11 14 -26 36 -35 48 l-17 21 -40 -36 c-63
-57 -139 -71 -217 -42 -74 28 -72 28 -100 -15 -35 -57 -82 -79 -138 -64 -41
11 -42 11 -83 -27 -64 -59 -131 -69 -202 -31 -21 11 -26 9 -47 -13 -32 -34
-89 -44 -131 -21 -31 16 -54 14 -54 -5 0 -14 44 -41 82 -50 18 -5 53 -16 77
-25 48 -17 229 -24 287 -11 28 6 36 3 68 -30 46 -48 80 -117 72 -149 -8 -32
-51 -44 -143 -38 -66 4 -72 3 -78 -17 -8 -26 -61 -50 -110 -50 -19 0 -57 9
-85 19 l-50 19 -34 -34 c-29 -29 -41 -34 -79 -34 -25 0 -58 5 -72 10 l-26 10
20 -28 20 -29 -35 -16 c-83 -40 -177 -27 -243 34 -31 28 -36 29 -63 18 -19 -8
-46 -9 -81 -4 -61 9 -94 9 -162 0 -27 -4 -61 -2 -75 3 -20 7 -32 4 -62 -16
-78 -51 -187 -47 -293 12 l-58 32 -45 -23 c-82 -42 -159 -28 -219 40 -22 25
-38 34 -64 35 -23 1 -41 9 -56 27 l-23 26 -72 -35 c-134 -66 -278 -70 -401
-13 -140 65 -164 169 -60 257 l38 32 -37 38 c-31 31 -38 45 -38 77 0 69 72
131 203 176 15 6 13 12 -18 53 -58 75 -43 155 41 228 23 19 25 25 15 43 -20
38 -13 98 20 159 46 89 81 121 143 129 69 10 77 18 75 79 -3 62 15 99 70 149
54 49 104 61 219 53 l92 -7 30 30 c35 35 38 61 10 107 -12 18 -23 54 -26 81
-5 43 -2 53 26 91 58 80 196 110 292 63 24 -11 50 -21 57 -21 7 0 33 16 57 36
l44 36 0 68 c0 99 36 139 135 150 45 4 52 9 67 40 13 24 18 59 18 111 0 98 20
131 110 178 55 29 77 35 156 40 90 6 93 6 119 -21 15 -15 40 -30 56 -33 26 -6
29 -11 29 -44 0 -74 61 -104 200 -99 67 2 85 6 85 18 0 12 -21 16 -107 20
-138 6 -148 15 -136 115 3 16 -5 21 -39 25 -51 7 -97 45 -84 69 5 9 9 28 9 43
0 15 12 42 27 59 29 35 30 55 4 152 -12 46 -11 49 17 90 34 49 89 78 157 85
56 5 77 28 77 81 0 41 33 81 66 81 38 0 54 26 54 87 0 51 3 59 38 93 43 43 92
60 174 60 34 0 60 5 65 13 4 6 8 49 8 93 l0 82 46 58 c63 81 109 111 198 129
90 19 123 37 149 84 64 112 201 155 351 110z m1246 -3488 c5 -9 44 -15 140
-24 37 -3 147 -69 175 -105 25 -31 11 -41 -22 -18 -27 20 -58 22 -40 4 18 -18
15 -48 -5 -48 -9 0 -40 12 -70 26 -59 29 -77 27 -43 -4 88 -82 93 -89 66 -111
-11 -10 -16 -8 -20 6 -15 46 -154 103 -252 103 -90 0 -88 -17 4 -22 109 -7
185 -39 219 -89 22 -33 25 -45 17 -67 -15 -42 -44 -38 -79 11 -42 59 -120 96
-203 97 -67 0 -102 -12 -102 -34 0 -18 40 -28 78 -20 49 10 146 -29 197 -80
24 -23 47 -55 51 -70 6 -25 2 -23 -45 24 -71 71 -137 100 -226 100 -47 0 -84
-7 -111 -19 l-41 -18 69 69 c73 76 160 187 199 255 24 44 33 50 44 34z m879
-78 c-8 -33 -44 -92 -82 -136 -145 -166 -288 -303 -328 -313 -15 -4 -35 -2
-45 5 -26 16 -26 16 -26 -33 0 -51 -26 -98 -51 -94 -9 2 -16 -3 -15 -9 2 -7
-3 -13 -10 -13 -24 0 -37 24 -37 69 0 32 -3 42 -11 34 -13 -13 -16 -69 -6
-105 6 -23 1 -34 -36 -72 -44 -48 -75 -57 -97 -31 -20 25 -29 17 -17 -15 6
-16 8 -32 4 -36 -11 -11 -37 17 -37 40 0 11 -7 29 -14 38 -10 14 -11 27 -1 65
14 54 12 64 -12 41 -18 -19 -24 -110 -11 -172 5 -22 6 -46 2 -55 -9 -21 -32
50 -33 102 -1 36 -13 48 -26 27 -8 -13 12 -105 32 -144 13 -25 13 -30 -4 -46
-34 -31 -60 -41 -71 -27 -31 39 -38 153 -14 215 3 10 1 13 -6 8 -7 -4 -19 -31
-27 -61 -15 -50 -15 -56 5 -114 11 -33 20 -72 20 -86 0 -22 -3 -24 -19 -16
-25 14 -33 58 -31 157 1 81 -7 106 -29 80 -17 -21 -26 -243 -12 -303 12 -49
36 -85 63 -96 14 -6 -58 -76 -77 -76 -23 0 -54 38 -61 75 -10 55 -31 101 -48
107 -26 10 -28 -11 -7 -73 12 -33 21 -68 21 -78 0 -40 32 -138 52 -159 12 -13
32 -23 45 -23 30 0 29 -9 -6 -56 -87 -119 -164 -119 -221 2 -11 24 -23 44 -26
44 -3 0 -2 -19 1 -42 5 -33 17 -54 53 -90 29 -31 49 -44 53 -36 4 7 14 -2 24
-23 15 -27 17 -49 12 -126 -4 -51 -2 -95 2 -98 19 -11 36 30 36 89 0 54 2 61
20 61 19 0 20 -6 17 -95 -2 -52 -8 -118 -14 -147 -11 -51 -11 -52 -77 -81 -36
-16 -90 -37 -120 -46 -87 -28 -183 -98 -162 -119 8 -8 22 -5 48 10 21 11 49
24 63 28 14 4 41 18 60 30 31 21 89 31 157 26 21 -2 35 -39 23 -61 -9 -17 -21
-20 -75 -20 -82 0 -222 -48 -282 -97 -24 -20 -43 -39 -43 -44 0 -11 -42 -81
-46 -76 -2 2 12 52 31 113 19 60 35 122 35 137 0 16 9 70 21 120 11 51 22 101
24 112 8 38 73 61 180 65 l30 1 -25 10 c-25 11 -104 7 -150 -7 -23 -7 -24 -6
-10 10 25 31 48 148 49 252 2 149 19 353 35 404 8 25 27 77 44 115 24 58 28
78 22 115 l-7 45 -7 -40 c-4 -22 -9 -49 -11 -60 -3 -11 -23 -42 -45 -70 -22
-27 -47 -64 -57 -82 l-16 -32 -34 29 c-64 57 -185 70 -285 31 -59 -23 -107
-55 -97 -65 3 -3 34 8 69 25 85 42 141 45 203 11 26 -14 64 -44 84 -65 l35
-40 -5 -81 c-6 -92 -20 -145 -45 -175 -17 -21 -18 -21 -107 -6 -125 23 -173
15 -321 -51 -8 -4 -7 18 3 73 22 124 24 144 13 161 -8 14 -9 12 -10 -10 0 -16
-4 -28 -9 -28 -11 0 -27 -47 -36 -109 -17 -105 -79 -146 -159 -102 -26 14 -43
18 -49 12 -7 -7 -2 -14 14 -20 13 -5 33 -18 45 -29 11 -10 30 -25 42 -31 29
-15 28 -37 -3 -57 -15 -10 -25 -26 -25 -40 0 -18 -5 -24 -22 -24 -30 0 -57
-18 -42 -27 6 -5 16 -17 22 -28 8 -16 7 -24 -8 -40 -29 -32 -80 -133 -80 -160
0 -34 -24 -32 -80 5 -45 30 -120 42 -120 20 0 -5 11 -10 25 -10 37 0 80 -25
105 -60 27 -38 21 -85 -15 -129 -36 -42 -60 -45 -93 -10 -39 42 -90 72 -112
66 -14 -3 -18 -1 -12 6 4 7 29 45 55 85 82 123 153 286 237 541 89 269 110
371 110 541 0 79 -4 111 -15 128 -19 26 -11 132 8 113 18 -18 37 -12 47 14 6
15 17 25 29 25 48 0 136 44 188 94 l53 52 43 -28 c23 -15 65 -35 93 -44 l50
-16 -57 -54 c-57 -55 -111 -151 -125 -223 -6 -28 -4 -33 11 -30 12 3 25 23 37
59 40 117 144 228 236 252 30 7 82 42 172 114 72 57 130 101 130 99 0 -3 23 7
51 21 71 37 168 44 232 16 26 -11 63 -33 82 -48 35 -26 85 -87 68 -82 -4 1
-25 -1 -47 -6 -28 -5 -42 -3 -55 7 -19 17 -136 53 -198 60 -29 3 -46 1 -53 -9
-20 -23 0 -34 64 -34 39 0 88 -9 131 -23 l68 -23 -32 -23 c-18 -13 -51 -33
-74 -45 -34 -19 -46 -33 -65 -82 -14 -32 -29 -69 -35 -82 -8 -16 -7 -26 1 -34
16 -16 28 -3 72 79 22 42 46 74 65 85 28 16 155 37 256 42 53 2 170 55 304
138 146 91 259 200 310 299 19 37 66 87 83 89 1 0 -1 -12 -4 -27z m-2069 -50
c22 -57 22 -62 7 -76 -10 -9 -30 -20 -45 -26 -16 -6 -26 -15 -22 -21 7 -11 52
4 76 26 15 13 17 13 23 -2 8 -20 12 -16 -51 -48 -83 -42 -133 -32 -195 37 -45
49 -46 60 -13 89 26 23 174 89 189 85 4 -2 19 -30 31 -64z m915 -62 c0 -19
-311 -290 -369 -320 -91 -49 -270 54 -370 213 l-30 49 66 22 c50 17 74 20 97
14 35 -10 116 -10 161 0 22 5 44 0 84 -21 89 -47 228 -36 285 21 29 29 76 42
76 22z m-815 -151 c54 -87 58 -97 51 -125 -9 -36 -104 -130 -151 -149 -58 -25
-82 -21 -101 15 -15 30 -15 33 3 58 11 14 47 40 81 56 33 17 72 40 85 53 13
12 30 22 38 22 10 1 10 3 -3 11 -13 7 -27 3 -58 -17 -57 -38 -116 -42 -174
-13 -25 12 -46 28 -46 35 0 19 41 44 71 44 32 0 124 39 94 40 -15 0 -9 7 20
24 28 16 42 20 48 12 4 -6 23 -36 42 -66z m-483 -29 c60 -17 114 -31 121 -31
24 0 57 -55 51 -86 -6 -35 -7 -36 -27 -28 -15 5 -71 81 -80 107 -3 9 -7 9 -18
1 -20 -16 -76 -15 -90 2 -6 8 -22 14 -36 14 -14 0 -26 7 -30 18 -3 9 -17 27
-32 40 l-26 24 30 -15 c17 -8 78 -28 137 -46z m869 -1181 c54 -21 57 -24 62
-62 6 -44 -9 -98 -26 -98 -7 0 -34 7 -62 16 -73 22 -225 19 -281 -6 -62 -27
-58 -43 9 -34 111 15 139 12 221 -22 44 -19 84 -38 89 -43 11 -11 1 -61 -11
-61 -5 0 -28 16 -51 36 -38 33 -121 63 -121 44 0 -10 41 -45 77 -65 41 -24 73
-83 80 -148 3 -28 8 -74 12 -102 8 -62 -10 -189 -33 -233 -22 -43 -31 -35 -17
14 14 52 -3 70 -23 23 -16 -39 -41 -139 -51 -209 -9 -60 -26 -89 -73 -127 -33
-27 -41 -30 -46 -17 -3 9 2 35 12 57 13 30 18 59 15 100 -3 41 2 70 15 100 24
56 46 136 39 143 -3 4 -23 -28 -43 -70 -20 -42 -41 -76 -45 -76 -5 0 -21 16
-36 36 -26 33 -119 91 -130 81 -2 -3 23 -36 56 -73 63 -73 88 -131 67 -159
-19 -26 -67 -8 -121 46 -77 77 -215 137 -215 94 0 -9 8 -18 18 -21 70 -23 146
-70 184 -115 28 -32 51 -49 66 -49 17 0 22 -6 22 -28 0 -81 -98 -67 -154 22
-16 25 -32 46 -37 46 -4 0 -10 -14 -14 -31 -6 -25 -3 -34 17 -47 45 -32 69
-65 66 -91 -4 -31 -38 -40 -58 -16 -20 24 -33 18 -27 -14 8 -38 -4 -47 -97
-70 -43 -11 -80 -22 -83 -25 -3 -2 -23 2 -46 10 -45 16 -87 50 -87 70 0 17
-118 54 -152 47 -14 -3 -40 3 -59 13 l-34 17 45 20 c74 33 186 25 264 -19 65
-36 79 -26 29 23 -46 46 -114 73 -181 73 l-44 0 124 99 c154 123 197 170 228
249 25 62 26 63 79 79 66 19 171 14 218 -11 18 -9 56 -37 83 -61 49 -44 70
-50 70 -20 0 19 -84 90 -138 117 -54 26 -166 36 -224 20 l-37 -10 10 26 c14
38 80 154 96 170 20 20 80 156 99 224 20 70 31 78 146 120 96 33 148 33 239
-2z m-847 -669 l59 -60 -67 -69 c-36 -38 -77 -84 -91 -101 -13 -18 -43 -46
-67 -63 -24 -16 -32 -21 -19 -9 35 32 19 26 -95 -33 l-104 -55 -70 20 c-117
33 -194 13 -110 -29 l41 -20 -33 -10 c-89 -28 -157 -21 -177 17 -5 9 -29 27
-54 39 -52 26 -122 29 -175 6 l-37 -15 -32 38 c-22 26 -33 33 -33 21 0 -9 12
-31 26 -48 15 -17 24 -34 20 -37 -3 -3 -39 -9 -78 -13 -82 -8 -169 -44 -211
-87 -14 -16 -47 -44 -72 -63 -25 -19 -61 -47 -79 -62 -19 -16 -38 -28 -43 -28
-5 0 -22 -13 -36 -30 -15 -16 -46 -39 -69 -51 -36 -18 -47 -20 -73 -10 -42 15
-45 14 -45 -9 0 -25 -48 -50 -97 -50 -21 0 -56 -9 -78 -20 l-39 -20 33 34 c35
36 70 54 229 115 136 53 196 95 284 197 85 100 168 166 235 187 27 9 109 21
183 27 74 6 181 20 237 31 116 22 293 90 395 150 62 37 176 131 206 171 20 27
70 5 136 -61z m1277 27 c54 -16 52 -43 -5 -88 -50 -39 -90 -112 -88 -161 1
-58 15 -53 71 32 23 35 61 74 86 91 25 16 45 34 45 39 0 23 49 6 84 -30 l37
-38 -59 -5 c-61 -6 -122 -30 -122 -49 0 -7 7 -8 18 -4 90 39 192 49 192 20 0
-8 -6 -15 -14 -15 -19 0 -113 -86 -104 -95 4 -4 26 9 48 29 68 61 84 63 137
16 25 -22 50 -40 56 -40 5 0 -8 -13 -31 -29 -47 -34 -100 -134 -109 -202 -7
-50 -24 -89 -49 -110 -15 -12 -20 -9 -51 26 -58 67 -56 109 5 178 55 61 71 86
34 52 -57 -51 -105 -131 -98 -159 3 -14 9 -36 12 -49 5 -20 0 -25 -30 -34
l-36 -11 0 31 c0 18 7 59 14 92 15 63 14 75 -9 75 -15 0 -30 -46 -41 -125 l-6
-51 -72 23 c-93 30 -166 64 -166 77 0 21 17 37 46 45 32 8 63 56 46 73 -6 6
-13 -1 -20 -20 -7 -20 -18 -31 -39 -35 -17 -3 -35 -16 -43 -31 l-13 -26 -27
38 c-15 20 -32 51 -38 67 -11 29 -12 29 -9 -14 5 -94 -30 -41 -53 81 -12 63 9
123 74 206 55 72 87 96 158 122 62 22 116 25 169 8z m889 -312 c-19 -7 -55
-22 -80 -33 -25 -11 -66 -28 -91 -37 -55 -20 -81 -45 -118 -117 -15 -30 -43
-64 -62 -77 -34 -24 -34 -24 -37 -3 -3 18 12 74 36 140 3 8 0 12 -8 9 -14 -4
-50 -92 -50 -121 0 -25 -53 -77 -78 -77 -13 0 -26 14 -40 43 l-21 42 1 -36 c1
-48 -7 -59 -48 -59 l-34 0 0 53 c0 144 103 288 186 260 21 -7 68 -5 164 7 74
10 176 18 225 18 84 1 88 0 55 -12z m210 -38 c49 -30 70 -49 64 -59 -3 -5 -11
-6 -17 -2 -17 10 -135 5 -158 -7 -10 -6 -57 -42 -105 -80 -86 -70 -114 -83
-114 -55 0 8 4 15 9 15 9 0 24 30 18 36 -1 2 -16 -8 -32 -22 -17 -14 -47 -35
-67 -45 -33 -17 -38 -17 -38 -4 0 52 70 132 158 182 131 73 208 84 282 41z
m-3235 -113 c65 -7 155 -32 155 -44 0 -3 -40 -17 -89 -30 -49 -12 -101 -29
-115 -36 -23 -12 -26 -11 -32 7 -6 21 -75 57 -111 58 -42 0 -33 19 19 39 29
11 66 19 83 16 17 -2 57 -7 90 -10z m3396 5 c10 -6 26 -24 34 -40 l16 -30 -43
0 c-41 -1 -78 -7 -162 -29 -49 -12 -76 -2 -50 19 9 8 33 22 53 31 31 15 33 18
13 18 -13 1 -63 -19 -110 -44 -59 -31 -88 -42 -91 -33 -6 19 65 74 113 88 93
26 198 35 227 20z m-3552 -82 c44 -19 25 -39 -45 -49 -32 -4 -69 -17 -83 -28
-14 -11 -48 -33 -76 -49 -27 -17 -84 -60 -125 -97 -66 -58 -195 -145 -216
-145 -8 0 68 71 116 109 17 13 55 55 84 95 60 81 115 132 163 152 18 8 33 19
33 26 0 14 106 4 149 -14z m845 -28 c17 -5 43 -12 58 -15 15 -3 40 -23 59 -46
31 -40 32 -42 14 -55 -25 -18 -50 -18 -66 2 -23 28 -116 82 -161 94 -24 7 -47
16 -53 20 -5 5 -23 11 -40 13 -16 3 12 4 64 1 52 -2 108 -8 125 -14z m2848
-74 l87 -93 -72 13 c-107 20 -132 29 -129 46 2 11 -18 23 -65 41 -39 14 -68
31 -68 38 0 22 65 49 115 49 44 -1 48 -4 132 -94z m-3031 31 c35 -14 75 -27
89 -31 14 -3 37 -17 53 -31 48 -46 30 -95 -47 -125 -21 -8 -28 -6 -41 13 -11
16 -15 18 -15 5 0 -21 -20 -37 -57 -44 -27 -5 -32 -3 -43 28 l-14 33 -3 -27
c-3 -16 -10 -28 -17 -28 -6 0 -39 19 -71 43 -33 23 -71 48 -85 55 -78 40 -87
47 -81 64 8 21 54 58 89 69 48 15 173 3 243 -24z m-230 -173 c71 -39 75 -47
49 -89 -12 -19 -26 -35 -31 -35 -5 0 -11 -1 -14 -1 -2 -1 -37 -7 -76 -15 -111
-21 -146 -47 -291 -218 -4 -6 -2 8 6 30 7 21 21 63 31 93 21 66 53 119 125
205 l55 66 48 -4 c26 -3 70 -17 98 -32z"/>
<path d="M6272 5978 c-72 -11 -146 -50 -202 -109 -26 -27 -55 -49 -65 -49 -46
0 -103 -27 -147 -71 -39 -39 -48 -56 -58 -105 l-12 -59 -61 -1 c-74 -1 -138
-27 -195 -78 -49 -45 -72 -91 -72 -145 0 -38 -2 -41 -28 -41 -38 0 -112 -39
-135 -72 -12 -16 -20 -43 -20 -66 0 -37 -2 -41 -32 -46 -46 -9 -118 -59 -149
-105 -48 -69 -76 -211 -42 -211 15 0 26 30 26 71 0 14 13 52 30 85 33 65 86
110 142 121 61 11 69 19 62 63 -11 71 32 109 140 125 l48 7 -6 38 c-22 141
177 266 320 201 37 -17 51 -30 103 -101 l18 -24 35 37 c41 43 81 49 122 16 15
-12 33 -18 43 -15 14 6 13 10 -7 31 -45 48 -118 55 -169 16 -23 -18 -24 -18
-63 25 -22 24 -48 46 -58 49 -15 5 -16 12 -9 50 19 102 71 152 179 169 25 4
50 21 85 57 89 92 204 126 323 95 72 -18 126 -50 170 -100 44 -50 60 -85 75
-158 l12 -63 82 -11 c106 -15 144 -29 175 -62 34 -36 41 -63 42 -152 l1 -74
33 -7 c62 -13 102 -71 102 -151 1 -34 6 -47 26 -62 15 -10 38 -18 53 -18 14 1
47 -4 74 -9 69 -16 91 -51 93 -147 1 -72 2 -74 38 -104 46 -37 66 -76 66 -125
0 -36 -7 -52 -54 -117 -18 -26 -18 -27 1 -49 51 -55 56 -110 17 -156 -24 -29
-25 -33 -12 -54 38 -57 25 -115 -36 -163 -59 -47 -37 -77 24 -34 60 43 89 136
59 191 -8 16 -5 30 12 65 25 53 21 102 -12 148 -17 23 -20 33 -11 45 73 102
68 184 -16 264 -35 35 -39 43 -35 76 7 51 -13 115 -48 156 -23 26 -43 36 -84
45 -30 6 -59 9 -65 5 -22 -14 -50 15 -50 53 -1 70 -51 148 -111 171 -25 9 -27
14 -30 89 -6 118 -46 167 -163 198 -28 8 -67 14 -86 14 -48 0 -56 8 -64 58
-15 97 -105 211 -201 253 -56 25 -155 37 -223 27z"/>
<path d="M3029 5783 c-3 -82 19 -122 81 -147 40 -16 49 -29 30 -41 -16 -10
-12 -78 6 -103 8 -12 34 -32 57 -43 23 -12 52 -34 65 -50 25 -30 90 -54 122
-44 14 4 23 -2 35 -24 25 -49 85 -71 85 -31 0 13 -7 20 -18 20 -25 0 -42 19
-42 47 0 25 -2 26 -73 23 -43 -1 -51 2 -80 32 -18 19 -47 40 -65 48 -37 14
-72 54 -72 80 0 10 9 29 20 43 11 14 20 30 20 35 0 5 -25 20 -55 32 -68 28
-79 41 -80 99 -1 35 -5 47 -18 49 -13 3 -17 -4 -18 -25z"/>
<path d="M5076 5468 c-3 -7 -7 -40 -10 -73 -13 -121 -77 -206 -188 -247 -32
-11 -58 -25 -58 -30 0 -6 11 -23 25 -40 32 -38 33 -87 3 -115 -31 -28 -76 -50
-121 -58 -44 -8 -52 -18 -38 -43 8 -14 6 -24 -6 -39 -16 -20 -17 -20 -49 12
-30 31 -107 65 -145 65 -13 0 -19 11 -24 43 -17 104 -67 165 -157 192 -88 26
-185 16 -292 -29 -37 -16 -41 -15 -83 5 -35 17 -57 20 -108 17 -54 -3 -66 -1
-70 12 -3 9 -17 28 -31 41 -21 20 -38 24 -92 26 -37 2 -100 12 -141 23 -239
64 -411 -33 -411 -232 0 -44 -2 -49 -32 -61 -68 -29 -90 -80 -58 -134 21 -36
21 -38 3 -50 -70 -49 -95 -98 -81 -152 6 -20 15 -42 20 -49 18 -21 1 -24 -34
-6 -22 12 -56 18 -99 19 -54 0 -72 -4 -102 -25 -42 -28 -84 -104 -89 -160 -3
-34 -4 -35 -63 -47 -78 -16 -121 -39 -145 -78 -30 -49 -22 -114 21 -176 18
-26 18 -26 -12 -48 -17 -13 -37 -39 -45 -58 -14 -32 -13 -38 6 -75 l21 -41
-37 -30 c-75 -62 -76 -135 -4 -199 41 -37 92 -58 138 -58 17 0 22 -6 22 -24 0
-31 43 -66 82 -66 41 0 34 31 -10 42 -17 5 -32 14 -33 21 -1 7 -2 23 -2 37 -2
23 -7 25 -57 30 -83 8 -143 48 -155 102 -9 37 12 70 65 103 22 14 40 29 40 35
0 5 -11 26 -25 46 -14 20 -25 44 -25 52 0 8 21 34 46 57 l46 42 -31 55 c-39
68 -41 116 -6 150 25 25 84 48 126 48 53 0 69 11 69 44 0 50 28 120 60 151 23
22 42 29 82 33 29 2 65 -1 80 -7 25 -9 26 -12 17 -41 -14 -38 -3 -100 16 -100
11 0 15 13 15 50 0 48 1 50 41 70 22 12 39 24 37 28 -2 4 -14 29 -28 55 -23
44 -23 50 -10 75 9 14 36 42 60 60 25 19 47 38 48 43 2 5 -8 23 -22 40 -14 17
-26 38 -26 48 0 23 30 50 66 60 27 7 29 11 37 77 9 86 22 120 60 161 48 52
101 67 210 60 50 -2 103 -9 116 -14 23 -9 23 -10 -14 -31 -30 -18 -35 -25 -25
-37 10 -12 20 -10 64 15 38 22 66 30 100 30 60 0 82 -12 101 -56 14 -34 16
-35 52 -27 112 23 213 -27 213 -105 0 -25 18 -38 32 -24 8 8 6 25 -4 57 l-16
46 36 15 c67 28 122 37 196 32 122 -8 182 -62 193 -175 7 -65 13 -73 64 -73
56 0 119 -39 146 -90 30 -57 29 -87 -7 -155 -16 -31 -30 -62 -30 -69 0 -7 20
-26 45 -44 37 -26 45 -37 45 -63 0 -18 -11 -52 -25 -75 -24 -41 -25 -46 -11
-73 37 -71 28 -166 -20 -197 -13 -9 -47 -19 -76 -23 -47 -5 -53 -9 -56 -31 -6
-53 -13 -71 -45 -106 -81 -93 -229 -98 -277 -9 -17 31 -27 31 -56 0 -18 -19
-30 -24 -49 -19 -18 4 -27 2 -31 -10 -4 -9 -4 -19 -1 -22 11 -11 78 -6 93 6
12 11 19 9 37 -7 45 -41 87 -56 147 -50 31 3 70 12 86 20 53 28 110 92 123
139 12 42 15 44 64 56 105 24 146 110 110 227 l-19 60 23 34 c35 52 31 105
-11 147 -33 33 -33 34 -11 34 26 0 65 -42 65 -71 0 -40 11 -49 59 -49 106 0
156 -58 157 -185 0 -78 1 -79 30 -91 43 -18 58 -39 49 -71 -15 -63 -89 -126
-172 -147 -60 -15 -67 -42 -11 -39 84 5 195 91 219 171 14 49 -5 93 -51 112
-27 11 -30 16 -24 46 9 47 -12 132 -43 172 -29 39 -93 71 -139 72 -27 0 -32 5
-43 40 -13 44 -57 80 -98 80 -21 0 -21 0 -3 48 18 49 18 108 -1 143 -6 12 -7
19 -2 16 18 -11 53 23 53 51 0 25 6 29 47 40 31 9 60 27 90 56 36 36 43 50 43
82 0 22 -8 49 -19 63 l-18 24 58 29 c97 48 150 127 170 249 10 62 5 99 -12 99
-5 0 -11 -6 -13 -12z"/>
<path d="M7034 4817 c-3 -8 -1 -32 5 -54 27 -97 -4 -193 -83 -258 -25 -20 -46
-41 -46 -46 0 -4 18 -25 41 -46 112 -105 14 -257 -172 -271 -64 -4 -71 -7 -94
-38 -48 -63 -150 -97 -219 -74 -20 6 -49 28 -66 48 l-30 36 -39 -22 c-22 -13
-63 -26 -90 -29 -42 -5 -60 -1 -106 21 -30 15 -59 25 -64 22 -5 -3 -12 -21
-15 -41 -9 -47 -38 -65 -107 -65 -40 0 -73 -8 -115 -27 -44 -20 -75 -27 -122
-28 -62 0 -64 1 -98 40 -19 22 -39 45 -45 52 -7 9 -18 9 -49 -2 -105 -37 -188
-24 -228 35 -25 38 -45 45 -50 19 -4 -21 42 -75 80 -95 38 -20 121 -21 183 -4
41 12 49 12 53 0 8 -23 65 -69 100 -81 42 -14 112 -4 172 23 26 13 78 24 124
28 72 6 82 9 108 38 15 18 28 39 28 47 0 13 5 13 33 -2 42 -22 139 -23 194 -1
l42 17 30 -28 c76 -71 227 -57 304 28 31 34 40 39 97 44 119 10 229 93 246
183 9 47 -9 105 -44 142 l-28 29 47 51 c73 79 92 155 66 266 -12 50 -32 70
-43 43z"/>
<path d="M7506 4293 c-14 -14 -4 -31 22 -38 83 -21 128 -101 120 -216 l-5 -71
42 -18 c44 -19 77 -63 93 -123 11 -44 38 -43 35 1 -2 46 -51 123 -93 146 l-35
18 0 77 c-1 88 -24 144 -77 184 -36 27 -93 49 -102 40z"/>
<path d="M7474 4047 c-3 -8 -4 -21 -3 -28 5 -25 -11 -56 -35 -67 -18 -8 -26
-22 -31 -53 -9 -50 -52 -99 -87 -99 -51 0 -68 -11 -79 -52 -14 -55 -65 -77
-175 -78 -60 0 -94 -5 -125 -20 -66 -29 -134 -26 -205 10 -40 20 -62 26 -69
19 -15 -16 41 -57 104 -75 62 -19 142 -14 189 10 20 10 57 16 104 16 40 0 91
5 113 11 44 13 105 70 105 100 0 13 7 19 22 19 36 0 102 38 121 69 9 16 17 43
17 59 0 22 6 32 20 37 31 10 52 49 48 91 -3 38 -24 57 -34 31z"/>
<path d="M1109 3893 c-6 -16 -13 -50 -16 -78 -10 -97 63 -157 200 -163 l77 -4
0 -33 c0 -37 19 -62 55 -71 21 -5 23 -11 21 -47 -8 -132 95 -217 263 -217 102
0 192 29 267 86 29 21 33 22 45 8 30 -36 91 -57 154 -52 98 8 250 87 221 115
-3 3 -43 -11 -88 -32 -130 -61 -214 -59 -273 6 l-26 30 -41 -36 c-53 -45 -135
-76 -220 -82 -183 -15 -273 52 -266 197 l3 55 -32 3 c-42 4 -58 24 -43 52 25
46 12 55 -82 56 -67 1 -97 6 -133 24 -66 32 -75 62 -50 178 6 26 4 32 -9 32
-9 0 -21 -12 -27 -27z"/>
<path d="M3556 3804 c-35 -34 -42 -36 -87 -32 -31 3 -60 14 -83 31 -19 15 -37
27 -39 27 -3 0 -17 -20 -31 -44 -46 -78 -158 -109 -239 -66 -42 23 -68 25 -84
9 -18 -18 -146 -23 -197 -9 -25 7 -64 28 -86 48 -31 26 -44 32 -53 23 -14 -14
33 -65 88 -93 55 -29 168 -36 234 -14 47 15 51 15 97 -5 37 -17 59 -20 101
-16 63 7 138 47 161 86 l15 27 45 -23 c69 -35 136 -27 193 23 11 10 24 11 49
4 37 -11 75 2 94 32 16 27 -1 33 -37 13 -31 -16 -35 -16 -65 -1 -17 9 -32 16
-34 16 -2 0 -20 -17 -42 -36z"/>
<path d="M7503 3577 c-64 -66 -123 -91 -213 -92 -41 0 -95 2 -120 5 -35 4 -45
2 -45 -9 0 -21 49 -32 150 -34 78 -2 97 2 145 24 72 34 156 109 147 132 -9 25
-18 21 -64 -26z"/>
</g>
</svg>
